<?xml version="1.0" encoding="utf-8"?>
<svg version="1.1" id="Layer_1" xmlns="http://www.w3.org/2000/svg" xmlns:xlink="http://www.w3.org/1999/xlink" x="0px" y="0px" viewBox="0 0 1000 400" xml:space="preserve">
<style>
<![CDATA[enable-background:new 0 0 1000 400;]]>
</style>
<style>
<![CDATA[[object Object]]]>
</style>
<g>
<g>
<path class="st0" d="M135.9,88.7c-22.4,58.7-46.6,116.6-72.4,173.5c2.7,1.3,5.4,2.6,8.1,3.8c7.6-36.3,19.5-71.1,36.3-103.3&#xA;&#x9;&#x9;&#x9;c8.4-16.2,18-31.8,28.6-46.3c10.2-13.9,21.6-29,35.8-38c3.6-2.3,8.4-5.5,12.6-5.2c4.1,0.3,4.3,4.8,4.1,8.7&#xA;&#x9;&#x9;&#x9;c-0.5,8.2-3.5,16.8-6,24.4c-5.5,17.3-13,33.9-22.1,49.3c-9.2,15.5-20.3,30.3-33.3,42.1c-3.2,2.9-6.4,5.3-9.9,7.5&#xA;&#x9;&#x9;&#x9;c-1.8,1.2-3.6,2.2-5.6,3.1c-1.5,0.6-5.3,1-6.3,2.2c-0.4,0.1-0.6,0.1-0.9,0.3c0.5,0.6,0.8,1.2,1.3,1.8c0.2-0.3,0.2-2.1,0.5-2.5&#xA;&#x9;&#x9;&#x9;c0.8-2.1,1.3-4.2,2.2-6.1c2-4.3,4.6-8.3,7.9-11.4c1.6-1.6,5.1-5.2,7.4-5.3c5.3-0.3,6.9,4.8,7.4,9.6c0.4,4.5-0.2,9.2,0.7,13.8&#xA;&#x9;&#x9;&#x9;c1.5,7.5,6.2,14.3,12,18.5c12.8,8.8,29.5,2.6,37-11.4c0.9-1.8,0.5-4.7-1.3-5.6c-10.2-5.2-23.2,0.4-25.5,13.4&#xA;&#x9;&#x9;&#x9;c-0.4,2.1,0.2,3.9,1.9,5.1c4.3,3,10.3,0.5,11.2-5.2c0.8-4.8-5.1-6.8-6.7-2.1c0.1,0.1,0.2,0.1,0.4,0.3c0.4,1.4,0.7,2.9,1.1,4.3&#xA;&#x9;&#x9;&#x9;c1.9-7.1,8.6-10.9,14.8-8.2c-0.7-2.1-1.5-4-2.2-6.1c-4.6,9.4-14.4,14.9-23.8,11.6c-4.8-1.7-8.8-5.5-11.4-10.1&#xA;&#x9;&#x9;&#x9;c-2.9-5.3-2.9-10.9-3.4-16.9c-0.5-6.6-3.2-15.3-10-16.4c-7.4-1.2-15.8,7-20.3,12.5c-4.3,5.2-10.7,14.3-8.8,22&#xA;&#x9;&#x9;&#x9;c2.7,10.1,14.2,5.1,20.2,2.2c17.2-8.3,30.7-25,42.2-41.1c11.7-16.5,21.1-34.6,28.4-53.9c3.7-10.1,6.9-20.7,9.2-31.5&#xA;&#x9;&#x9;&#x9;c1.6-7.4,2.7-16.1-1.3-22.9c-9.8-17-34.1,4.5-42.4,13.1c-13.9,14.3-25.9,31.5-36.9,48.6c-25.6,39.5-44.1,85-53.6,132.6&#xA;&#x9;&#x9;&#x9;c-1.1,5.2,5.8,9.1,8.1,3.8c25.5-57.6,49.2-116.2,71.1-175.6C143.6,87.7,137.4,84.7,135.9,88.7L135.9,88.7z"/>
</g>
</g>
<g>
<g>
<path class="st0" d="M263.2,63.2c-11.6,24.7-23.6,49.3-36,73.4s-25.8,47.8-38.4,71.9c-2.3,4.4,2.5,10.3,6.5,7.3&#xA;&#x9;&#x9;&#x9;c5.4-3.9,10.7-7.8,16-11.7c2.3-1.7,4.8-3.9,7.5-4.9c0.5-0.1,2.6-1,2.9-0.6c1.2,1.2-1.5,5.5-2,6.2c-3.4,5.3-7.2,10.3-11.4,14.8&#xA;&#x9;&#x9;&#x9;c-3.5,3.6-9.2,6.8-10,12.3c-0.4,1.9,0.7,3.6,2.6,3.8c7,0.5,14.2-11.2,18.1-16.5c3.9-5.3,12.5-15.2,10-22.7&#xA;&#x9;&#x9;&#x9;c-1.9-6-8.1-6.2-12.7-4.7c-8.9,2.9-17.6,10-25.7,14.8c2.2,2.5,4.3,4.8,6.5,7.3c26.7-46.9,50-97.1,72.3-146.7&#xA;&#x9;&#x9;&#x9;C271.3,62.7,265.3,58.8,263.2,63.2L263.2,63.2z"/>
</g>
</g>
<g>
<g>
<path class="st0" d="M233.1,221.8c-1.6,4.8-5.4,7.5-7.5,12c-1.5,3.2,0.9,6.5,4,5.8c6.2-1.3,9.9-9.2,11.8-15.2c0.7-2.5-0.8-5.2-3-6&#xA;&#x9;&#x9;&#x9;C236,217.6,233.9,219.3,233.1,221.8L233.1,221.8z"/>
</g>
</g>
<g>
<g>
<path class="st0" d="M252.8,191.3c-0.1-0.3-0.1-0.5-0.2-0.8c-0.6-1.9-2.3-3.6-4.2-3.6c-2,0.1-3.6,1.4-4.2,3.6&#xA;&#x9;&#x9;&#x9;c-0.1,0.3-0.1,0.5-0.2,0.8c-0.8,3.2,1.5,6.5,4.4,6.5S253.6,194.4,252.8,191.3L252.8,191.3z"/>
</g>
</g>
<g>
<g>
<path class="st0" d="M251.6,221.9c-0.5,1.2-0.8,2.5-1.3,3.6c-1.1,3,2.6,6.1,4.9,4.2c4.6-3.6,9.1-7.1,13.9-10.4&#xA;&#x9;&#x9;&#x9;c2.5-1.6,4.8-3.1,7.4-4.5c2.1-1.2,5.5-4,7.9-3.9c-1.1-0.5-2.1-0.9-3.2-1.4c2.7,2.5-0.6,12.6-0.6,16.1c0.1,4.4,1.4,8.6,4,12.1&#xA;&#x9;&#x9;&#x9;c6.3,8.4,16.1,9,25.2,7.4c4.8-0.8,4.8-9.9,0-10.8c-6.7-1.2-17.5-1-18.6-10.7c-0.7-6.6,2-15.3-3.2-20.7c-5-5.1-12.3,1.6-16.7,4.5&#xA;&#x9;&#x9;&#x9;c-7.2,4.8-13.9,10.3-20.2,16.4c1.9,1.2,3.7,2.5,5.6,3.6c0.4-1.3,0.6-2.5,0.9-3.8C258.9,219.3,253,217.8,251.6,221.9L251.6,221.9z"/>
</g>
</g>
<g>
<g>
<path d="M484.6,272.2c-0.1,0.1-0.2,0.2-0.2,0.3c0.7-0.2,1.3-0.3,2-0.5c-1.3-0.5-2.3-4.9-2.8-6c-0.8-2-1.5-4-2.3-6.1&#xA;&#x9;&#x9;&#x9;c-1.5-4.4-2.8-8.8-4-13.2c-2.2-8.4-4-16.9-5.2-25.5c-2.4-17.6-3.9-35.6-1.8-53.3c0.9-7.5,2.2-15.7,6.1-22.2&#xA;&#x9;&#x9;&#x9;c1.7-2.8,3.8-5.2,6.7-6.8c2.9-1.6,8.4-3.8,8.9,1c0.9,7.7-4.9,17-8.2,23.7c-3.9,7.9-8.1,15.7-12.6,23.4&#xA;&#x9;&#x9;&#x9;c-9.8,16.6-20.6,32.4-34.9,45.5c-3.7,3.4,1.1,9.7,5.3,6.9c7.9-5.1,16.3-9.8,24.7-14.1c8.5-4.4,17.9-7.8,25.7-13.3&#xA;&#x9;&#x9;&#x9;c2.1-1.4,1.7-5.7-1.4-5.3c-9.6,1.1-18.8,5.5-27.4,9.7c-9.1,4.5-17.6,9.7-26,15.4c1.8,2.3,3.6,4.6,5.3,6.9&#xA;&#x9;&#x9;&#x9;c15.2-14.6,27.7-32.2,38.5-50.2c5.6-9.3,11.1-18.9,15.4-28.9c3.2-7.4,7.8-18.6,3.3-26.4c-4.6-8-15.5-6-22.1-2&#xA;&#x9;&#x9;&#x9;c-6.8,4.2-10.9,11.3-13.3,18.8c-6.5,20.4-4.6,43.1-1.7,63.9c1.7,12,4.4,24,8.5,35.5c2,5.7,4.4,11.4,7.1,16.9c1.5,3,3,8.8,7.2,8.5&#xA;&#x9;&#x9;&#x9;c0.6,0,1.3-0.4,1.4-1.1c0-0.1,0-0.3,0.1-0.4C487.3,271.8,485.6,270.9,484.6,272.2L484.6,272.2z"/>
</g>
</g>
<g>
<g>
<path class="st0" d="M621.8,245.7c17.5-29.5,33.6-61,46.3-93.9c2-5.2-4.3-9.9-6.6-4.7c-14.2,32.3-28.9,63.9-46.5,93.7&#xA;&#x9;&#x9;&#x9;C611.9,246,618.9,250.7,621.8,245.7L621.8,245.7z"/>
</g>
</g>
<g>
<g>
<path class="st0" d="M644.7,146c20.3-11.6,41.4-20.4,63-27.7c10.7-3.6,21.6-7,32.6-10c5.1-1.5,10.1-2.9,15.3-4.4&#xA;&#x9;&#x9;&#x9;c5.9-1.6,14.9-6.3,17.8,2.6c4,12.2-2.9,28.8-7,39.7c-4.8,13-9.6,25.9-14.6,38.9c-9.8,25.5-19.8,50.8-29.9,76&#xA;&#x9;&#x9;&#x9;c-11.2,28.1-25,55.7-33.7,85.1c-2.1,7,6.7,10.9,9.9,4.9c7.1-13.7,12.3-28.7,17.9-43.4c5.5-14.3,10.9-28.5,16.4-42.8&#xA;&#x9;&#x9;&#x9;c11.1-29,22-57.9,32.5-87.2c4.9-13.4,10.3-26.9,14.2-40.9c2.9-10.9,5.4-25.2,0.7-36c-5-11.6-15-8.4-23.9-6.1&#xA;&#x9;&#x9;&#x9;c-12,3.3-24,6.7-36,10.3c-27.1,8.3-53.7,18.3-79,32.6C636.4,140.6,640.3,148.6,644.7,146L644.7,146z"/>
</g>
</g>
<g>
<g>
<path class="st0" d="M779.5,211.4c-5,0.7-9.4,3.5-12.3,8.6c-2.2,3.8-4.3,10-1,13.8c4.3,4.7,11.8,1,16.2-1.3&#xA;&#x9;&#x9;&#x9;c2.4-1.3,3.4-2.5,6.2-1.3c1.2,0.4,2.3,1.3,3.5,1.9c3.9,1.9,7.3,2.6,11.5,2.3c3.3-0.1,4.4-6.4,0.9-7.3c-4.3-0.9-8.3-2-12.3-3.8&#xA;&#x9;&#x9;&#x9;c-2.8-1.3-5.1-1.9-7.9-0.6c-3.5,1.6-8.5,7.3-12.5,6c-4.9-1.6-2.4-6.8-0.9-9.6c2.2-3.8,5.2-6,8.9-7&#xA;&#x9;&#x9;&#x9;C780.5,213,780.4,211.2,779.5,211.4L779.5,211.4z"/>
</g>
</g>
<g>
<g>
<path class="st0" d="M814.4,217.2c4.5,10,11.2,20.7,20,25.6c1.7,1,3.5-1.5,2.1-3.2c-6.8-8-13.3-15.1-17.7-25.5&#xA;&#x9;&#x9;&#x9;C817.5,210.6,813,213.7,814.4,217.2L814.4,217.2z"/>
</g>
</g>
<g>
<g>
<path class="st0" d="M831.9,204.7c-8.4,17-18.7,32.2-30,46.6c-3.1,3.9,1.7,9.6,4.9,5.8c12.3-14,22.3-30.9,30.6-48.6&#xA;&#x9;&#x9;&#x9;C839.6,204.2,834.1,200.3,831.9,204.7L831.9,204.7z"/>
</g>
</g>
<g>
<g>
<path class="st0" d="M847.4,220.5c0,3.1,0,6-0.2,9c-0.2,3.2-0.7,5.7,0.4,8.6c0.9,2.2,3.9,2.6,5.2,0.9c3.2-4.7,2-12.8,1.6-18.3&#xA;&#x9;&#x9;&#x9;C853.9,215.3,847.4,215.2,847.4,220.5L847.4,220.5z"/>
</g>
</g>
<g>
<g>
<path class="st0" d="M851.1,208.2c1.3,0,2.8-0.7,3.8-1.9c1-1.2,1.6-2.9,1.6-4.5c-0.1-3.5-2.3-6.4-5.4-6.4c-1.3,0-2.8,0.7-3.8,1.9&#xA;&#x9;&#x9;&#x9;c-1,1.2-1.6,2.9-1.6,4.5C845.8,205.3,848.1,208.2,851.1,208.2L851.1,208.2z"/>
</g>
</g>
<g>
<g>
<path class="st0" d="M865.9,231.7c1.3-5.4,3.3-10,6.6-14c-1.1-0.3-2.2-0.7-3.4-1c1.7,5.5,4.5,19.2,10.3,20.1&#xA;&#x9;&#x9;&#x9;c5.6,1,9.4-9.5,11.1-14.1c-2.1-0.7-4.2-1.3-6.2-2c-0.7,9.6,3.9,17.9,11.4,21.4c3.8,1.7,6.6-6,2.8-8c-4.8-2.5-6.8-7.4-7.4-13.4&#xA;&#x9;&#x9;&#x9;c-0.4-4.1-5.7-5.8-6.5-1c-0.5,2.6-1.1,4.9-2.2,7.3c-1.5,2.9-2,3.1-3.5,0.3c-2.3-3.8-3.8-8.4-5.9-12.2c-0.9-1.6-2.7-1.6-3.5,0&#xA;&#x9;&#x9;&#x9;c-2.7,5.2-4.5,10.2-5.4,16.3C863.7,232.8,865.6,233.3,865.9,231.7L865.9,231.7z"/>
</g>
</g>
<g>
<g>
<path class="st0" d="M906.2,227.4c4.8-1.7,7.9-5.5,8.9-11.5c0.2-1.6-0.4-3.2-1.7-3.6c-7.7-2.6-9.4,8.3-5.6,14.3&#xA;&#x9;&#x9;&#x9;c5.9,9.3,16.2,13,25.1,16c3.7,1.3,5.2-5.5,1.6-6.7c-3.9-1.2-7.9-2.5-11.6-4.2c-2-0.9-3.8-2-5.5-3.2c-1.2-0.9-2.4-1.9-3.5-3.1&#xA;&#x9;&#x9;&#x9;c-2-1.6-2.4-3.9-1.6-7.1c-0.6-1.2-1.2-2.5-1.7-3.6c-0.7,4.1-2.6,6.8-5.7,8.6C902.4,224.2,904,228.3,906.2,227.4L906.2,227.4z"/>
</g>
</g>
</svg>
